<?xml version="1.0" standalone="no"?>
<!DOCTYPE svg PUBLIC "-//W3C//DTD SVG 20010904//EN"
 "http://www.w3.org/TR/2001/REC-SVG-20010904/DTD/svg10.dtd">
<svg version="1.0" xmlns="http://www.w3.org/2000/svg"
 width="688.000000pt" height="688.000000pt" viewBox="0 0 688.000000 688.000000"
 preserveAspectRatio="xMidYMid meet">
<metadata>
Created by potrace 1.14, written by Peter Selinger 2001-2017
</metadata>
<g transform="translate(0.000000,688.000000) scale(0.100000,-0.100000)"
fill="#000000" stroke="none">
<path d="M3451 6735 c-118 -26 -230 -90 -315 -179 -41 -43 -116 -152 -116
-169 0 -5 -7 -23 -15 -41 -21 -43 -42 -170 -38 -231 10 -199 100 -367 258
-485 28 -20 60 -40 73 -44 19 -6 25 -15 24 -36 0 -10 -13 -136 -17 -170 -5
-45 -16 -152 -20 -210 -4 -51 -14 -146 -20 -202 -3 -20 -7 -68 -11 -106 -10
-119 -6 -111 -60 -118 -22 -2 -50 -6 -64 -9 -14 -3 -38 -7 -55 -10 -58 -10
-177 -39 -209 -51 -14 -5 -25 12 -178 266 l-48 78 15 43 c39 110 34 212 -15
315 -37 77 -108 147 -185 184 -54 25 -135 44 -175 41 -8 -1 -24 -1 -35 -1 -44
-1 -133 -33 -185 -68 -110 -75 -173 -192 -174 -327 0 -44 4 -89 8 -100 5 -11
11 -29 13 -40 6 -34 56 -109 100 -151 59 -57 159 -104 226 -108 24 -1 30 -12
116 -209 33 -76 58 -143 55 -150 -2 -7 -17 -20 -32 -29 -15 -9 -39 -27 -53
-40 -14 -13 -50 -45 -79 -71 -49 -45 -53 -51 -41 -70 12 -21 12 -21 -4 -6 -16
16 -18 16 -34 0 -14 -15 -113 -131 -117 -139 -2 -3 -107 37 -179 68 -22 10
-51 21 -64 25 -13 4 -40 14 -60 23 -20 9 -40 17 -46 18 -13 4 -378 149 -426
170 -32 14 -35 19 -34 52 3 111 -36 239 -102 335 -18 26 -33 49 -33 51 0 11
-114 111 -141 124 -16 8 -29 18 -29 23 0 5 -4 9 -9 9 -5 0 -29 9 -55 20 -25
12 -49 21 -53 22 -5 0 -18 4 -31 9 -53 20 -178 28 -257 16 -77 -12 -235 -71
-235 -88 0 -4 -10 -11 -21 -14 -38 -12 -199 -189 -199 -218 0 -2 -10 -26 -22
-53 -12 -27 -23 -51 -23 -54 -1 -3 -7 -32 -14 -64 -8 -37 -11 -94 -8 -150 7
-125 23 -178 91 -300 40 -71 134 -159 229 -214 41 -24 149 -61 195 -68 37 -5
172 -5 197 0 101 21 216 69 276 116 l39 32 100 -61 c56 -34 105 -61 110 -61 6
0 10 -4 10 -10 0 -5 5 -10 10 -10 6 0 36 -16 66 -35 30 -19 57 -35 60 -35 3 0
26 -14 51 -30 24 -17 46 -30 48 -30 2 0 40 -22 85 -50 45 -27 83 -50 86 -50 2
0 28 -16 58 -35 l55 -35 -14 -40 c-8 -22 -14 -43 -14 -45 0 -3 -4 -29 -10 -58
-15 -78 -20 -114 -26 -207 -9 -133 -3 -124 -97 -144 -46 -10 -85 -18 -88 -18
-3 0 -12 -4 -21 -9 -9 -4 -31 -11 -50 -14 -18 -3 -67 -15 -109 -26 -41 -12
-82 -22 -90 -24 -8 -2 -27 -6 -42 -10 -21 -6 -36 1 -81 38 -185 151 -455 110
-585 -88 -21 -33 -45 -82 -52 -109 -13 -49 -17 -152 -7 -192 16 -62 31 -104
39 -104 4 0 8 -7 8 -15 0 -8 26 -41 58 -73 58 -59 151 -112 196 -112 12 0 26
-3 30 -7 10 -10 111 -5 160 8 97 26 173 82 234 172 18 26 36 48 40 48 11 2 88
7 202 12 58 3 158 9 223 12 113 7 117 6 117 -14 0 -11 4 -22 9 -25 5 -3 11
-17 15 -30 3 -13 20 -54 36 -92 24 -53 33 -65 41 -54 7 11 8 8 4 -10 -4 -18 6
-44 39 -97 l44 -71 -67 -75 c-36 -40 -73 -81 -81 -89 -8 -8 -51 -55 -95 -103
-44 -48 -97 -105 -117 -127 -21 -22 -38 -41 -38 -43 0 -2 -19 -23 -42 -47 -24
-25 -69 -73 -101 -108 l-57 -63 -44 17 c-24 9 -54 19 -67 22 -13 3 -35 8 -49
11 -14 4 -72 6 -130 6 -88 0 -118 -4 -182 -26 -42 -15 -101 -41 -130 -59 -51
-31 -178 -149 -178 -166 0 -4 -8 -17 -18 -28 -25 -27 -78 -158 -90 -222 -9
-51 -8 -197 1 -237 17 -68 58 -164 100 -230 13 -21 111 -120 143 -145 91 -71
243 -118 371 -115 93 2 199 20 208 36 4 5 14 9 23 9 23 1 130 67 178 110 93
85 155 189 189 320 22 87 20 187 -6 304 -8 32 -8 50 -1 55 17 11 354 273 397
310 11 9 38 30 60 46 22 16 42 32 45 35 3 3 32 27 65 52 53 40 74 58 122 98
18 15 18 14 89 -35 35 -25 64 -42 64 -39 0 4 7 0 16 -7 34 -28 191 -99 290
-131 63 -20 106 -39 109 -49 3 -8 7 -51 10 -95 3 -43 7 -110 10 -149 3 -38 8
-97 10 -130 2 -33 7 -97 10 -141 6 -73 5 -83 -12 -95 -37 -26 -91 -107 -110
-166 -87 -259 94 -521 367 -528 170 -4 316 93 381 255 25 65 32 173 14 242
-18 65 -68 150 -113 189 -20 18 -37 38 -36 43 0 6 4 43 9 81 4 39 9 79 11 90
6 57 16 133 20 155 2 14 6 48 9 75 3 28 8 59 10 70 2 11 4 32 4 47 1 29 10 34
86 44 28 3 52 7 55 9 3 2 29 6 57 10 29 3 83 15 120 26 54 15 70 16 80 6 14
-15 163 -247 163 -255 0 -3 7 -13 16 -23 9 -10 23 -32 33 -49 16 -31 16 -33
-12 -89 -35 -70 -49 -189 -31 -251 7 -22 10 -40 8 -40 -8 0 47 -101 69 -127
53 -62 131 -120 174 -128 10 -2 18 -4 18 -5 0 -5 48 -13 100 -15 119 -7 221
32 304 116 45 44 97 133 104 174 1 11 5 25 8 30 3 6 4 42 3 80 -4 183 -123
334 -298 379 -32 9 -60 17 -60 18 -10 19 -51 113 -52 117 0 3 -11 29 -23 56
-13 28 -43 95 -67 149 l-43 100 32 23 c38 28 100 79 135 110 13 13 30 20 36
16 16 -9 169 -126 184 -141 7 -6 16 -12 20 -12 6 0 20 -11 90 -71 12 -10 27
-19 32 -19 6 0 10 -4 10 -8 0 -4 13 -15 28 -24 15 -9 43 -30 62 -47 19 -17 38
-31 42 -31 4 0 13 -6 20 -13 7 -7 29 -24 48 -37 19 -13 37 -27 40 -30 3 -3 42
-34 88 -69 l83 -63 -8 -46 c-9 -56 -8 -174 1 -222 17 -88 66 -197 119 -264
142 -179 373 -269 587 -230 243 45 418 198 491 429 23 71 31 222 16 305 -10
53 -55 159 -93 216 -49 75 -179 194 -212 194 -5 0 -17 9 -27 20 -10 11 -26 20
-35 20 -9 0 -20 3 -24 8 -4 4 -12 8 -17 8 -5 1 -10 2 -11 4 -2 1 -10 3 -18 5
-106 28 -262 26 -350 -4 -36 -12 -80 -29 -98 -39 l-32 -17 -118 117 c-64 65
-220 219 -346 344 l-229 227 13 31 c7 17 31 86 54 153 l41 123 70 1 c39 1 125
2 192 3 68 0 123 3 123 6 0 3 26 5 57 4 47 -1 60 -5 75 -25 135 -178 361 -224
539 -110 64 40 115 97 145 160 33 70 38 97 37 192 0 66 -5 86 -36 150 -20 41
-50 89 -69 108 -120 123 -309 159 -459 87 -51 -25 -61 -32 -123 -92 -48 -47
-12 -44 -326 -20 -96 8 -174 17 -178 21 -2 2 -6 30 -8 62 -6 87 -15 146 -40
251 -8 34 -12 67 -9 73 4 5 125 68 268 138 144 71 336 165 426 210 l164 81 31
-24 c27 -20 92 -58 106 -61 3 -1 18 -7 33 -13 39 -16 80 -23 168 -27 198 -10
389 79 517 242 17 22 32 45 32 50 0 5 8 20 17 33 19 26 51 108 59 148 12 65
14 82 15 142 0 84 -6 122 -37 206 -33 91 -64 142 -130 213 -108 117 -221 167
-398 175 -48 2 -173 -13 -196 -24 -3 -1 -12 -5 -20 -7 -8 -3 -35 -15 -60 -26
-199 -91 -340 -298 -354 -522 -3 -43 -9 -82 -13 -85 -7 -6 -196 -69 -228 -76
-5 -1 -57 -18 -115 -37 -183 -61 -454 -148 -470 -152 -8 -2 -33 -10 -56 -18
-47 -17 -46 -18 -97 46 -21 26 -71 79 -110 117 l-71 70 24 42 c12 24 28 50 35
58 7 8 18 30 26 48 8 17 17 32 21 32 5 0 8 4 8 10 0 5 22 47 49 92 44 74 53
84 80 86 38 3 106 29 143 54 14 10 29 18 32 18 15 0 89 88 112 132 63 122 64
249 3 370 -84 166 -265 247 -454 203 -41 -10 -75 -21 -75 -24 0 -3 -13 -12
-29 -19 -45 -20 -120 -100 -152 -164 -16 -32 -27 -58 -24 -58 2 0 0 -12 -6
-27 -16 -43 -13 -152 6 -206 9 -27 14 -55 11 -62 -5 -14 -201 -279 -223 -303
-10 -10 -25 -7 -80 17 -89 38 -112 47 -131 50 -5 0 -10 25 -11 54 -3 62 -8
142 -15 257 -3 47 -8 123 -10 170 -9 142 -17 282 -21 333 -3 46 -1 48 30 61
18 8 57 30 87 49 245 161 344 462 242 734 -55 148 -174 277 -314 341 -65 30
-140 53 -150 47 -5 -3 -11 -2 -14 3 -8 14 -168 12 -235 -3z m100 -2440 c19 -4
45 -9 59 -11 56 -6 150 -34 216 -64 27 -13 72 -33 101 -46 144 -66 346 -237
446 -376 85 -120 164 -284 192 -398 33 -139 40 -190 40 -325 0 -145 -8 -204
-40 -321 -32 -114 -28 -100 -57 -166 -14 -31 -29 -65 -33 -77 -3 -12 -11 -21
-16 -21 -5 0 -9 -5 -9 -12 0 -11 -73 -130 -95 -154 -5 -7 -32 -37 -59 -69 -65
-75 -194 -185 -265 -225 -14 -8 -28 -17 -31 -20 -21 -23 -300 -138 -300 -125
0 3 -12 0 -27 -6 -100 -39 -395 -45 -543 -12 -262 57 -498 196 -673 394 -55
62 -142 186 -152 218 -3 11 -11 21 -16 21 -5 0 -8 3 -7 8 1 7 -2 15 -37 97
-20 48 -45 120 -51 149 -3 11 -6 26 -8 31 -23 89 -29 151 -30 280 0 180 9 241
60 394 33 99 85 212 129 276 92 136 201 252 305 325 19 14 37 28 40 31 3 3 21
14 40 25 19 10 37 22 40 25 3 3 23 14 45 25 22 10 43 23 47 28 4 6 8 8 8 4 0
-4 24 4 53 16 53 24 140 51 189 60 15 2 31 7 36 10 4 2 42 8 83 12 40 3 75 7
76 9 7 5 213 -3 244 -10z m-1227 -184 c-2 -3 -12 3 -22 13 -16 17 -16 18 5 5
12 -7 20 -15 17 -18z m27 -28 c13 -16 12 -17 -3 -4 -17 13 -22 21 -14 21 2 0
10 -8 17 -17z m-321 -1703 c0 -5 -5 -10 -11 -10 -5 0 -7 5 -4 10 3 6 8 10 11
10 2 0 4 -4 4 -10z m-90 -44 c0 -2 -7 -7 -16 -10 -8 -3 -12 -2 -9 4 6 10 25
14 25 6z"/>
</g>
</svg>
